<svg width="618" height="141" viewBox="0 0 618 141" fill="none" xmlns="http://www.w3.org/2000/svg">
<rect width="618" height="141" fill="white"/>
<path d="M265.023 59V35.7273H269.943V54.9432H279.92V59H265.023ZM303.659 47.3636C303.659 49.9015 303.178 52.0606 302.216 53.8409C301.261 55.6212 299.958 56.9811 298.307 57.9205C296.663 58.8523 294.814 59.3182 292.761 59.3182C290.693 59.3182 288.837 58.8485 287.193 57.9091C285.549 56.9697 284.25 55.6098 283.295 53.8295C282.341 52.0492 281.864 49.8939 281.864 47.3636C281.864 44.8258 282.341 42.6667 283.295 40.8864C284.25 39.1061 285.549 37.75 287.193 36.8182C288.837 35.8788 290.693 35.4091 292.761 35.4091C294.814 35.4091 296.663 35.8788 298.307 36.8182C299.958 37.75 301.261 39.1061 302.216 40.8864C303.178 42.6667 303.659 44.8258 303.659 47.3636ZM298.67 47.3636C298.67 45.7197 298.424 44.3333 297.932 43.2045C297.447 42.0758 296.761 41.2197 295.875 40.6364C294.989 40.053 293.951 39.7614 292.761 39.7614C291.572 39.7614 290.534 40.053 289.648 40.6364C288.761 41.2197 288.072 42.0758 287.58 43.2045C287.095 44.3333 286.852 45.7197 286.852 47.3636C286.852 49.0076 287.095 50.3939 287.58 51.5227C288.072 52.6515 288.761 53.5076 289.648 54.0909C290.534 54.6742 291.572 54.9659 292.761 54.9659C293.951 54.9659 294.989 54.6742 295.875 54.0909C296.761 53.5076 297.447 52.6515 297.932 51.5227C298.424 50.3939 298.67 49.0076 298.67 47.3636ZM322.736 43.25C322.577 42.697 322.353 42.2083 322.065 41.7841C321.777 41.3523 321.425 40.9886 321.009 40.6932C320.599 40.3902 320.13 40.1591 319.599 40C319.077 39.8409 318.497 39.7614 317.861 39.7614C316.671 39.7614 315.626 40.0568 314.724 40.6477C313.83 41.2386 313.134 42.0985 312.634 43.2273C312.134 44.3485 311.884 45.7197 311.884 47.3409C311.884 48.9621 312.13 50.3409 312.622 51.4773C313.115 52.6136 313.812 53.4811 314.713 54.0795C315.615 54.6705 316.679 54.9659 317.906 54.9659C319.02 54.9659 319.971 54.7689 320.759 54.375C321.554 53.9735 322.16 53.4091 322.577 52.6818C323.001 51.9545 323.213 51.0947 323.213 50.1023L324.213 50.25H318.213V46.5455H327.952V49.4773C327.952 51.5227 327.52 53.2803 326.656 54.75C325.793 56.2121 324.603 57.3409 323.088 58.1364C321.573 58.9242 319.838 59.3182 317.884 59.3182C315.702 59.3182 313.785 58.8371 312.134 57.875C310.482 56.9053 309.194 55.5303 308.27 53.75C307.353 51.9621 306.895 49.8409 306.895 47.3864C306.895 45.5 307.168 43.8182 307.713 42.3409C308.266 40.8561 309.039 39.5985 310.031 38.5682C311.024 37.5379 312.179 36.7538 313.497 36.2159C314.815 35.678 316.243 35.4091 317.781 35.4091C319.099 35.4091 320.327 35.6023 321.463 35.9886C322.599 36.3674 323.607 36.9053 324.486 37.6023C325.372 38.2992 326.096 39.1288 326.656 40.0909C327.217 41.0455 327.577 42.0985 327.736 43.25H322.736ZM353.034 47.3636C353.034 49.9015 352.553 52.0606 351.591 53.8409C350.636 55.6212 349.333 56.9811 347.682 57.9205C346.038 58.8523 344.189 59.3182 342.136 59.3182C340.068 59.3182 338.212 58.8485 336.568 57.9091C334.924 56.9697 333.625 55.6098 332.67 53.8295C331.716 52.0492 331.239 49.8939 331.239 47.3636C331.239 44.8258 331.716 42.6667 332.67 40.8864C333.625 39.1061 334.924 37.75 336.568 36.8182C338.212 35.8788 340.068 35.4091 342.136 35.4091C344.189 35.4091 346.038 35.8788 347.682 36.8182C349.333 37.75 350.636 39.1061 351.591 40.8864C352.553 42.6667 353.034 44.8258 353.034 47.3636ZM348.045 47.3636C348.045 45.7197 347.799 44.3333 347.307 43.2045C346.822 42.0758 346.136 41.2197 345.25 40.6364C344.364 40.053 343.326 39.7614 342.136 39.7614C340.947 39.7614 339.909 40.053 339.023 40.6364C338.136 41.2197 337.447 42.0758 336.955 43.2045C336.47 44.3333 336.227 45.7197 336.227 47.3636C336.227 49.0076 336.47 50.3939 336.955 51.5227C337.447 52.6515 338.136 53.5076 339.023 54.0909C339.909 54.6742 340.947 54.9659 342.136 54.9659C343.326 54.9659 344.364 54.6742 345.25 54.0909C346.136 53.5076 346.822 52.6515 347.307 51.5227C347.799 50.3939 348.045 49.0076 348.045 47.3636Z" fill="#222222"/>
<rect x="40.5" y="34.5" width="149" height="35" rx="17.5" stroke="#E2E2E2"/>
<g clip-path="url(#clip0_166_313)">
<path d="M61.5233 55.4628L64.7355 58.6743L63.6743 59.7355L60.4628 56.5233C59.2678 57.4812 57.7815 58.0022 56.25 58C52.524 58 49.5 54.976 49.5 51.25C49.5 47.524 52.524 44.5 56.25 44.5C59.976 44.5 63 47.524 63 51.25C63.0022 52.7815 62.4812 54.2678 61.5233 55.4628ZM60.0187 54.9062C60.9706 53.9274 61.5022 52.6153 61.5 51.25C61.5 48.349 59.1503 46 56.25 46C53.349 46 51 48.349 51 51.25C51 54.1503 53.349 56.5 56.25 56.5C57.6153 56.5022 58.9274 55.9706 59.9062 55.0187L60.0187 54.9062V54.9062Z" fill="#E2E2E2"/>
</g>
<circle cx="172" cy="52" r="18" fill="#D9D9D9"/>
<path d="M172.22 46.9698C172.36 46.8292 172.551 46.7502 172.75 46.7502C172.949 46.7502 173.14 46.8292 173.28 46.9698L177.78 51.4698C177.921 51.6104 178 51.8011 178 52C178 52.1989 177.921 52.3896 177.78 52.5303L173.28 57.0303C173.139 57.1669 172.949 57.2425 172.753 57.2408C172.556 57.2391 172.368 57.1602 172.229 57.0211C172.09 56.8821 172.011 56.694 172.009 56.4973C172.008 56.3007 172.083 56.1112 172.22 55.9698L175.44 52.75H166.75C166.551 52.75 166.36 52.671 166.22 52.5304C166.079 52.3897 166 52.1989 166 52C166 51.8011 166.079 51.6103 166.22 51.4697C166.36 51.329 166.551 51.25 166.75 51.25H175.44L172.22 48.0303C172.079 47.8896 172 47.6989 172 47.5C172 47.3011 172.079 47.1104 172.22 46.9698V46.9698Z" fill="#222222"/>
<rect x="458" y="29" width="120" height="36" rx="18" fill="#E2E2E2"/>
<rect x="193" y="97" width="64" height="16" rx="8" fill="#E2E2E2"/>
<rect x="277" y="97" width="64" height="16" rx="8" fill="#E2E2E2"/>
<rect x="361" y="97" width="64" height="16" rx="8" fill="#E2E2E2"/>
<defs>
<clipPath id="clip0_166_313">
<rect width="18" height="18" fill="white" transform="translate(48 43)"/>
</clipPath>
</defs>
</svg>
