<svg width="618" height="141" viewBox="0 0 618 141" fill="none" xmlns="http://www.w3.org/2000/svg">
<rect width="618" height="141" fill="white"/>
<path d="M42.0227 85V61.7273H46.9432V80.9432H56.9205V85H42.0227ZM80.6591 73.3636C80.6591 75.9015 80.178 78.0606 79.2159 79.8409C78.2614 81.6212 76.9583 82.9811 75.3068 83.9205C73.6629 84.8523 71.8144 85.3182 69.7614 85.3182C67.6932 85.3182 65.8371 84.8485 64.1932 83.9091C62.5492 82.9697 61.25 81.6098 60.2955 79.8295C59.3409 78.0492 58.8636 75.8939 58.8636 73.3636C58.8636 70.8258 59.3409 68.6667 60.2955 66.8864C61.25 65.1061 62.5492 63.75 64.1932 62.8182C65.8371 61.8788 67.6932 61.4091 69.7614 61.4091C71.8144 61.4091 73.6629 61.8788 75.3068 62.8182C76.9583 63.75 78.2614 65.1061 79.2159 66.8864C80.178 68.6667 80.6591 70.8258 80.6591 73.3636ZM75.6705 73.3636C75.6705 71.7197 75.4242 70.3333 74.9318 69.2045C74.447 68.0758 73.7614 67.2197 72.875 66.6364C71.9886 66.053 70.9508 65.7614 69.7614 65.7614C68.572 65.7614 67.5341 66.053 66.6477 66.6364C65.7614 67.2197 65.072 68.0758 64.5795 69.2045C64.0947 70.3333 63.8523 71.7197 63.8523 73.3636C63.8523 75.0076 64.0947 76.3939 64.5795 77.5227C65.072 78.6515 65.7614 79.5076 66.6477 80.0909C67.5341 80.6742 68.572 80.9659 69.7614 80.9659C70.9508 80.9659 71.9886 80.6742 72.875 80.0909C73.7614 79.5076 74.447 78.6515 74.9318 77.5227C75.4242 76.3939 75.6705 75.0076 75.6705 73.3636ZM99.7358 69.25C99.5767 68.697 99.3532 68.2083 99.0653 67.7841C98.7775 67.3523 98.4252 66.9886 98.0085 66.6932C97.5994 66.3902 97.1297 66.1591 96.5994 66C96.0767 65.8409 95.4972 65.7614 94.8608 65.7614C93.6714 65.7614 92.6259 66.0568 91.7244 66.6477C90.8305 67.2386 90.1335 68.0985 89.6335 69.2273C89.1335 70.3485 88.8835 71.7197 88.8835 73.3409C88.8835 74.9621 89.1297 76.3409 89.6222 77.4773C90.1146 78.6136 90.8116 79.4811 91.7131 80.0795C92.6146 80.6705 93.679 80.9659 94.9062 80.9659C96.0199 80.9659 96.9706 80.7689 97.7585 80.375C98.554 79.9735 99.16 79.4091 99.5767 78.6818C100.001 77.9545 100.213 77.0947 100.213 76.1023L101.213 76.25H95.2131V72.5455H104.952V75.4773C104.952 77.5227 104.52 79.2803 103.656 80.75C102.793 82.2121 101.603 83.3409 100.088 84.1364C98.5729 84.9242 96.8381 85.3182 94.8835 85.3182C92.7017 85.3182 90.785 84.8371 89.1335 83.875C87.482 82.9053 86.1941 81.5303 85.2699 79.75C84.3532 77.9621 83.8949 75.8409 83.8949 73.3864C83.8949 71.5 84.1676 69.8182 84.7131 68.3409C85.2661 66.8561 86.0388 65.5985 87.0312 64.5682C88.0237 63.5379 89.179 62.7538 90.4972 62.2159C91.8153 61.678 93.2434 61.4091 94.7812 61.4091C96.0994 61.4091 97.3267 61.6023 98.4631 61.9886C99.5994 62.3674 100.607 62.9053 101.486 63.6023C102.372 64.2992 103.096 65.1288 103.656 66.0909C104.217 67.0455 104.577 68.0985 104.736 69.25H99.7358ZM130.034 73.3636C130.034 75.9015 129.553 78.0606 128.591 79.8409C127.636 81.6212 126.333 82.9811 124.682 83.9205C123.038 84.8523 121.189 85.3182 119.136 85.3182C117.068 85.3182 115.212 84.8485 113.568 83.9091C111.924 82.9697 110.625 81.6098 109.67 79.8295C108.716 78.0492 108.239 75.8939 108.239 73.3636C108.239 70.8258 108.716 68.6667 109.67 66.8864C110.625 65.1061 111.924 63.75 113.568 62.8182C115.212 61.8788 117.068 61.4091 119.136 61.4091C121.189 61.4091 123.038 61.8788 124.682 62.8182C126.333 63.75 127.636 65.1061 128.591 66.8864C129.553 68.6667 130.034 70.8258 130.034 73.3636ZM125.045 73.3636C125.045 71.7197 124.799 70.3333 124.307 69.2045C123.822 68.0758 123.136 67.2197 122.25 66.6364C121.364 66.053 120.326 65.7614 119.136 65.7614C117.947 65.7614 116.909 66.053 116.023 66.6364C115.136 67.2197 114.447 68.0758 113.955 69.2045C113.47 70.3333 113.227 71.7197 113.227 73.3636C113.227 75.0076 113.47 76.3939 113.955 77.5227C114.447 78.6515 115.136 79.5076 116.023 80.0909C116.909 80.6742 117.947 80.9659 119.136 80.9659C120.326 80.9659 121.364 80.6742 122.25 80.0909C123.136 79.5076 123.822 78.6515 124.307 77.5227C124.799 76.3939 125.045 75.0076 125.045 73.3636Z" fill="#222222"/>
<rect x="458" y="55" width="120" height="36" rx="18" fill="#E2E2E2"/>
<rect x="206" y="65" width="64" height="16" rx="8" fill="#E2E2E2"/>
<rect x="290" y="65" width="64" height="16" rx="8" fill="#E2E2E2"/>
<rect x="374" y="65" width="64" height="16" rx="8" fill="#E2E2E2"/>
</svg>
